<?xml version="1.0" standalone="no"?>
<!DOCTYPE svg PUBLIC "-//W3C//DTD SVG 20010904//EN"
 "http://www.w3.org/TR/2001/REC-SVG-20010904/DTD/svg10.dtd">
<svg version="1.0" xmlns="http://www.w3.org/2000/svg"
 width="800.000000pt" height="800.000000pt" viewBox="0 0 800.000000 800.000000"
 preserveAspectRatio="xMidYMid meet">
<metadata>
Created by potrace 1.14, written by Peter Selinger 2001-2017
</metadata>
<g transform="translate(0.000000,800.000000) scale(0.100000,-0.100000)"
fill="#000000" stroke="none">
<path d="M5455 6024 c-311 -121 -466 -181 -655 -255 -74 -29 -139 -54 -145
-55 -13 -3 -630 -242 -672 -260 -17 -8 -34 -14 -38 -14 -4 0 -23 -7 -42 -16
-29 -14 -43 -15 -86 -6 -29 6 -63 14 -77 16 -14 3 -50 10 -80 16 -30 6 -66 13
-80 16 -14 3 -65 13 -115 24 -49 10 -106 22 -125 25 -19 3 -43 8 -53 11 -10 3
-31 7 -48 9 -17 3 -38 7 -48 9 -9 3 -29 8 -46 11 -16 2 -39 7 -50 9 -19 5
-354 73 -405 82 -14 3 -88 18 -165 34 -77 16 -155 32 -174 35 -19 3 -37 7 -40
9 -3 2 -22 7 -41 10 -32 5 -97 17 -159 30 -143 30 -225 47 -257 52 -22 3 -42
8 -45 10 -4 2 -24 6 -45 9 -22 4 -47 8 -56 11 -9 3 -25 6 -35 8 -10 2 -35 6
-55 10 -21 4 -38 4 -38 1 0 -13 624 -1246 634 -1252 6 -4 29 -8 51 -9 48 -2
292 -15 535 -29 210 -13 289 -17 328 -18 23 -1 42 -4 42 -8 0 -4 -39 -42 -86
-85 -48 -44 -104 -95 -124 -114 -21 -19 -79 -73 -130 -120 -51 -47 -105 -96
-120 -110 -15 -14 -51 -47 -81 -74 -30 -27 -97 -88 -149 -136 -52 -48 -108
-100 -125 -115 -153 -139 -185 -170 -185 -177 0 -5 3 -7 8 -5 4 3 52 8 107 12
55 4 120 8 145 10 25 2 86 6 135 10 50 3 115 8 145 10 30 3 91 7 135 10 44 3
107 7 140 10 33 2 98 7 145 10 47 3 110 8 140 10 30 2 96 7 145 10 l90 6 55
57 c46 49 152 162 285 307 17 17 76 81 131 141 56 60 115 123 130 140 47 51
215 232 248 268 46 49 227 244 259 280 16 17 66 71 110 119 45 48 98 105 117
125 49 54 238 258 279 301 18 20 74 81 125 135 50 55 105 115 123 133 18 19
72 78 120 130 48 53 111 119 138 149 99 104 124 134 112 133 -7 0 -133 -47
-282 -105z"/>
<path d="M5738 5813 c-8 -16 -28 -53 -46 -84 l-31 -56 40 -59 c21 -32 39 -64
39 -71 0 -6 3 -13 8 -15 10 -4 182 -277 182 -289 0 -5 5 -9 10 -9 6 0 10 -7
10 -15 0 -8 5 -15 10 -15 6 0 10 -6 10 -12 0 -7 23 -46 50 -86 28 -41 50 -76
50 -78 0 -3 14 -25 30 -49 17 -24 30 -48 30 -54 0 -6 4 -11 9 -11 5 0 11 -8
14 -17 5 -14 113 -189 187 -303 33 -51 117 -183 125 -198 6 -9 69 -112 141
-227 72 -116 137 -221 145 -235 9 -16 14 -64 15 -140 1 -63 2 -117 3 -120 2
-9 336 -6 335 3 -1 9 -120 204 -222 362 -6 11 -15 27 -19 35 -4 8 -11 20 -16
25 -5 6 -18 27 -30 47 -12 21 -76 124 -142 229 -122 195 -135 215 -193 310
-18 30 -57 92 -87 139 -30 47 -58 92 -62 100 -10 21 -131 213 -143 227 -5 7
-10 14 -10 17 0 3 -47 80 -105 172 -58 91 -105 170 -105 175 0 5 -4 9 -10 9
-5 0 -10 4 -10 9 0 5 -40 73 -90 152 -49 79 -90 147 -90 151 0 18 -19 6 -32
-19z"/>
<path d="M1509 5663 c-1 -16 -8 -49 -23 -112 -9 -37 -18 -77 -20 -91 -3 -14
-7 -34 -10 -45 -22 -98 -57 -255 -61 -275 -14 -73 -16 -84 -21 -92 -3 -5 -7
-21 -9 -36 -2 -15 -10 -57 -19 -94 -17 -73 -26 -113 -31 -143 -2 -11 -6 -29
-9 -40 -13 -59 -58 -262 -61 -275 -2 -8 -10 -46 -19 -83 -9 -38 -16 -74 -16
-80 0 -9 40 -12 150 -11 82 0 152 3 155 5 2 3 7 21 9 39 3 19 10 53 15 75 5
22 12 54 15 70 2 17 7 39 9 50 10 43 59 271 62 290 2 11 6 34 10 50 3 17 13
64 22 105 8 41 17 83 19 93 2 9 6 27 9 40 2 12 9 42 15 67 5 25 12 58 14 74 3
16 7 31 10 34 6 5 -30 77 -53 105 -8 9 -10 17 -5 17 5 0 4 4 -1 8 -6 4 -17 21
-26 37 -30 61 -121 225 -125 225 -2 0 -4 -3 -5 -7z"/>
<path d="M1468 3995 c-20 -19 -39 -35 -42 -35 -3 0 -16 -10 -28 -22 -25 -24
-62 -57 -248 -213 -63 -54 -128 -109 -145 -124 -16 -14 -49 -43 -73 -63 l-43
-38 310 0 c289 0 311 1 312 18 4 68 3 512 -1 512 -3 0 -22 -16 -42 -35z"/>
<path d="M1147 3213 c-2 -1 -22 -5 -45 -8 -107 -13 -214 -107 -247 -217 -36
-122 -20 -279 39 -369 33 -49 98 -101 148 -117 71 -23 190 -24 261 -1 83 26
97 38 98 85 2 62 0 64 -27 39 -15 -14 -33 -25 -40 -25 -8 0 -14 -4 -14 -9 0
-8 -32 -17 -90 -27 -103 -18 -208 24 -251 100 -60 106 -57 282 6 374 21 31 95
91 95 77 0 -3 9 -1 21 5 38 21 144 14 205 -14 30 -14 62 -32 70 -41 22 -22 30
-12 29 37 -1 40 -4 45 -42 66 -23 13 -52 25 -65 28 -32 7 -148 21 -151 17z"/>
<path d="M1900 3203 c-68 -17 -103 -37 -142 -78 -42 -43 -50 -54 -65 -85 -24
-51 -34 -101 -38 -185 -6 -157 57 -280 176 -344 57 -30 187 -38 257 -15 100
34 176 121 205 234 13 53 15 171 3 218 -3 12 -8 30 -10 41 -9 37 -47 101 -83
137 -70 70 -200 104 -303 77z m180 -93 c157 -81 167 -429 14 -519 -31 -19 -99
-38 -117 -33 -4 1 -24 4 -43 7 -107 13 -179 127 -178 280 1 106 26 179 80 231
36 34 55 44 92 49 26 4 52 8 57 9 15 4 67 -9 95 -24z"/>
<path d="M2458 3203 c-2 -5 -4 -165 -3 -358 l0 -350 45 0 45 0 0 298 c0 163 3
297 6 297 4 0 14 -21 23 -47 10 -27 21 -57 26 -68 4 -11 17 -45 28 -75 12 -30
31 -82 44 -115 12 -33 23 -62 23 -65 1 -3 10 -25 21 -50 21 -45 21 -45 67 -42
l46 4 52 141 c28 78 55 151 59 162 4 11 8 23 9 28 0 4 8 21 17 38 8 17 17 40
20 52 2 11 8 25 13 30 6 6 9 -92 10 -254 0 -145 0 -280 0 -300 1 -35 2 -36 41
-36 23 0 43 4 46 9 5 7 8 623 5 687 -1 5 -16 9 -35 9 -19 0 -39 3 -45 7 -6 3
-11 2 -11 -2 0 -5 -12 -9 -26 -8 -28 0 -26 3 -100 -195 -19 -52 -48 -129 -65
-170 -16 -41 -29 -81 -29 -87 0 -36 -20 -2 -59 100 -23 61 -44 117 -45 122 -2
6 -8 24 -15 40 -14 35 -61 165 -66 181 -2 7 -28 11 -64 12 -33 0 -64 3 -70 6
-5 4 -11 3 -13 -1z"/>
<path d="M3376 3203 c-4 -4 -24 -6 -46 -4 l-39 2 2 -353 2 -353 43 -2 c51 -2
51 -1 50 142 0 160 -9 144 75 141 134 -3 225 33 263 106 19 37 25 126 11 179
-9 38 -83 126 -95 114 -3 -3 -12 0 -19 7 -9 7 -57 13 -119 14 -57 1 -108 5
-112 8 -5 3 -12 2 -16 -1z m200 -98 c45 -19 68 -58 68 -115 -2 -98 -49 -133
-181 -135 l-73 -1 -1 48 c0 26 -1 82 -1 123 0 41 1 79 1 85 1 14 151 10 187
-5z"/>
<path d="M4004 3196 c-9 -7 -22 -28 -29 -47 -36 -99 -76 -206 -84 -224 -6 -11
-35 -87 -66 -170 -31 -82 -65 -172 -75 -199 -11 -27 -20 -52 -20 -56 0 -3 21
-7 46 -7 44 -1 47 1 60 36 8 20 19 45 24 56 5 11 12 31 16 45 3 14 10 30 15
35 10 13 306 12 318 -1 4 -5 20 -45 36 -90 l27 -80 49 0 c27 -1 49 1 49 2 0 2
-31 86 -69 186 -195 516 -198 524 -207 515 -3 -3 -20 -1 -39 3 -22 5 -40 4
-51 -4z m57 -123 c6 -16 12 -32 13 -38 1 -5 10 -27 19 -49 9 -21 17 -42 17
-46 0 -9 38 -108 51 -132 5 -10 9 -26 9 -36 0 -17 -10 -18 -122 -17 -131 1
-131 0 -108 50 4 11 30 82 57 157 26 76 49 138 51 138 1 0 7 -12 13 -27z"/>
<path d="M4547 3203 c-2 -2 -19 -4 -38 -6 l-34 -3 -1 -339 c0 -187 1 -345 3
-351 3 -9 49 -12 85 -5 3 0 6 127 6 282 0 154 2 282 4 284 4 4 29 -43 204
-374 34 -64 71 -135 83 -157 l22 -42 64 1 65 1 0 352 0 353 -29 -1 c-15 -1
-33 2 -38 5 -6 4 -15 1 -20 -6 -5 -6 -8 -137 -8 -289 1 -153 -1 -278 -4 -278
-4 0 -30 46 -60 103 -29 56 -64 122 -78 147 -13 25 -49 92 -79 150 -31 57 -59
110 -65 116 -5 6 -6 14 -2 17 3 4 1 7 -5 7 -7 0 -12 6 -12 14 0 12 -54 28 -63
19z"/>
<path d="M5115 3200 c-3 -5 8 -30 24 -54 17 -25 31 -49 31 -54 0 -6 4 -12 8
-14 5 -1 46 -58 91 -126 l82 -122 2 -168 2 -167 45 0 45 0 2 168 1 167 122
180 c66 99 118 185 115 190 -4 6 -11 8 -16 4 -6 -3 -25 -6 -42 -6 -30 0 -38
-9 -126 -139 -52 -76 -97 -139 -101 -139 -6 0 -140 192 -149 215 -2 5 -10 15
-17 22 -7 7 -14 18 -16 24 -2 7 -21 14 -41 15 -21 2 -42 6 -47 9 -5 3 -11 1
-15 -5z"/>
<path d="M5304 2239 c-3 -6 -6 -31 -6 -56 0 -26 -3 -41 -7 -34 -9 14 -69 23
-76 10 -4 -5 -14 -4 -24 3 -15 9 -25 8 -46 -6 -24 -16 -28 -16 -38 -2 -8 11
-17 13 -26 7 -17 -11 -23 -190 -6 -192 5 0 17 -2 27 -4 18 -3 32 31 17 41 -5
3 -6 10 -3 16 4 6 7 26 6 43 -1 25 4 35 22 43 23 10 24 9 28 -49 3 -37 10 -66
21 -76 21 -21 73 -25 88 -7 9 11 15 12 26 2 27 -22 43 -18 44 10 3 80 4 219 1
234 -4 18 -39 31 -48 17z m-8 -146 c3 -16 7 -33 9 -39 2 -7 -5 -21 -16 -33
-16 -17 -24 -19 -39 -11 -11 6 -20 14 -21 18 0 4 -2 17 -5 30 -6 34 13 62 41
62 19 0 26 -7 31 -27z"/>
<path d="M2622 2216 c-4 -6 -7 -64 -7 -128 0 -119 5 -135 38 -122 10 4 13 26
12 84 -1 44 1 80 4 80 4 0 16 -32 26 -71 24 -86 26 -90 58 -93 21 -3 26 2 32
28 10 41 8 34 30 94 10 28 21 52 24 52 5 0 5 -86 1 -100 -1 -3 -1 -18 0 -35 2
-33 14 -45 39 -38 14 3 16 21 15 124 -1 66 -4 122 -6 125 -10 9 -53 13 -64 6
-6 -4 -24 -49 -41 -100 -17 -52 -33 -90 -36 -85 -2 4 -8 24 -12 43 -4 19 -11
40 -15 45 -5 6 -8 12 -8 15 0 3 -5 23 -11 46 -10 36 -14 40 -41 40 -17 0 -34
-4 -38 -10z"/>
<path d="M3829 2220 c-1 -3 -2 -60 -3 -127 l-1 -121 27 -4 c28 -4 28 -4 28 49
0 46 3 54 18 52 9 -1 29 -1 44 0 23 1 27 5 24 24 -3 19 -9 22 -45 20 -41 -2
-41 -2 -41 32 0 35 1 35 43 35 49 0 57 4 50 28 -3 14 -16 18 -74 18 -38 0 -70
-3 -70 -6z"/>
<path d="M3008 2152 c-27 -16 -44 -58 -39 -97 4 -38 23 -74 42 -80 68 -22 110
-11 133 33 16 31 18 89 4 98 -4 3 -6 9 -3 14 8 14 -43 43 -79 46 -17 2 -43 -5
-58 -14z m91 -51 c12 -25 4 -74 -15 -88 -44 -32 -85 59 -45 98 19 18 48 14 60
-10z"/>
<path d="M3213 2161 c-15 -9 56 -189 76 -194 34 -7 48 6 66 61 11 31 25 68 32
82 18 36 16 59 -4 55 -10 -2 -24 -4 -30 -4 -7 -1 -12 -4 -11 -8 0 -5 -1 -15
-5 -23 -3 -8 -12 -35 -19 -59 l-14 -45 -25 69 c-23 65 -41 83 -66 66z"/>
<path d="M3502 2159 c-53 -20 -71 -116 -29 -164 17 -20 34 -27 72 -30 27 -2
55 1 62 7 14 11 18 53 5 44 -23 -14 -68 -14 -90 0 -35 23 -14 37 53 35 l57 -1
-5 41 c-4 39 -10 47 -48 69 -18 10 -48 10 -77 -1z m64 -44 c25 -19 6 -33 -36
-27 -25 4 -28 7 -19 23 12 23 29 24 55 4z"/>
<path d="M4078 2154 c-61 -32 -57 -153 6 -182 35 -16 95 -6 116 19 21 24 24
34 21 89 -4 68 -80 107 -143 74z m90 -84 c6 -54 -43 -86 -70 -46 -14 20 -8 74
8 91 14 14 19 14 38 2 12 -9 22 -27 24 -47z"/>
<path d="M4297 2155 c-3 -9 -2 -137 2 -176 0 -10 9 -15 24 -14 20 1 22 7 25
63 3 53 7 65 27 78 13 9 28 13 34 10 12 -8 19 13 13 37 -5 21 -22 22 -48 2
-24 -18 -34 -19 -34 -2 0 15 -38 17 -43 2z"/>
<path d="M4460 2164 c0 -2 6 -23 14 -46 8 -24 20 -67 27 -95 7 -29 19 -54 26
-54 7 -1 21 -2 30 -3 17 -1 28 25 39 94 6 36 20 60 22 38 0 -7 6 -33 13 -58 6
-25 12 -51 12 -57 0 -7 4 -14 9 -14 4 -1 14 -2 21 -3 16 -3 47 12 45 22 -2 9
9 52 28 110 18 56 18 71 -3 67 -10 -2 -21 -4 -25 -4 -7 -1 -25 -60 -35 -111
-5 -31 -13 -39 -13 -14 0 35 -25 124 -35 125 -5 0 -18 2 -28 4 -23 4 -44 -46
-46 -109 -1 -26 -18 -9 -25 24 -12 59 -16 73 -21 78 -6 7 -55 11 -55 6z"/>
<path d="M4848 2163 c-19 -5 -20 -40 -1 -47 7 -3 13 -2 13 2 0 4 15 8 32 7 22
0 34 -5 36 -16 2 -13 -8 -18 -42 -23 -25 -4 -53 -14 -61 -22 -23 -23 -19 -70
7 -88 28 -20 45 -20 80 -2 18 10 28 11 31 3 4 -14 35 -17 40 -4 2 7 3 45 2 85
-1 51 -6 77 -17 88 -15 15 -85 25 -120 17z m82 -124 c0 -29 -48 -49 -62 -26
-11 18 9 43 36 43 18 0 26 -5 26 -17z"/>
</g>
</svg>
